<?xml version="1.0" encoding="UTF-8" standalone="no"?>
<svg
   xmlns:dc="http://purl.org/dc/elements/1.1/"
   xmlns:cc="http://creativecommons.org/ns#"
   xmlns:rdf="http://www.w3.org/1999/02/22-rdf-syntax-ns#"
   xmlns:svg="http://www.w3.org/2000/svg"
   xmlns="http://www.w3.org/2000/svg"
   xmlns:sodipodi="http://sodipodi.sourceforge.net/DTD/sodipodi-0.dtd"
   xmlns:inkscape="http://www.inkscape.org/namespaces/inkscape"
   xml:space="preserve"
   style="enable-background:new 0 0 489.682 489.682;"
   viewBox="0 0 489.682 489.682"
   height="489.682px"
   width="489.682px"
   y="0px"
   x="0px"
   id="Capa_1"
   version="1.1"
   inkscape:version="0.91 r"
   sodipodi:docname="building_humanDmg.svg"><sodipodi:namedview
     pagecolor="#ffffff"
     bordercolor="#666666"
     borderopacity="1"
     objecttolerance="10"
     gridtolerance="10"
     guidetolerance="10"
     inkscape:pageopacity="0"
     inkscape:pageshadow="2"
     inkscape:window-width="1543"
     inkscape:window-height="876"
     id="namedview3420"
     showgrid="false"
     inkscape:zoom="0.48194542"
     inkscape:cx="86.109336"
     inkscape:cy="244.841"
     inkscape:window-x="57"
     inkscape:window-y="24"
     inkscape:window-maximized="1"
     inkscape:current-layer="g5" /><metadata
     id="metadata49"><rdf:RDF><cc:Work
         rdf:about=""><dc:format>image/svg+xml</dc:format><dc:type
           rdf:resource="http://purl.org/dc/dcmitype/StillImage" /><dc:title /></cc:Work></rdf:RDF></metadata><defs
     id="defs47" /><g
     id="g3"><g
       id="g5"><polygon
         id="polygon7"
         points="31.38,339.21 110.117,339.21 0,449.325 36.898,486.222 147.013,376.108 147.013,454.843 199.193,454.843     199.193,287.03 31.38,287.03   "
         style="fill:#ff0000" /><polygon
         id="polygon9"
         points="458.302,339.21 458.302,287.03 290.488,287.03 290.488,454.843 342.669,454.843 342.669,376.108 452.782,486.222     489.682,449.325 379.564,339.21   "
         style="fill:#ff0000" /><polygon
         id="polygon11"
         points="458.302,150.472 379.564,150.472 489.682,40.357 452.782,3.46 342.669,113.574 342.669,34.839 290.488,34.839     290.488,202.652 458.302,202.652   "
         style="fill:#ff0000" /><polygon
         id="polygon13"
         points="147.013,113.574 36.898,3.46 0,40.357 110.117,150.472 31.38,150.472 31.38,202.652 199.193,202.652     199.193,34.839 147.013,34.839   "
         style="fill:#ff0000" /></g></g><g
     id="g15" /><g
     id="g17" /><g
     id="g19" /><g
     id="g21" /><g
     id="g23" /><g
     id="g25" /><g
     id="g27" /><g
     id="g29" /><g
     id="g31" /><g
     id="g33" /><g
     id="g35" /><g
     id="g37" /><g
     id="g39" /><g
     id="g41" /><g
     id="g43" /></svg>