<?xml version="1.0" encoding="UTF-8" standalone="no"?>
<svg
   xmlns:dc="http://purl.org/dc/elements/1.1/"
   xmlns:cc="http://creativecommons.org/ns#"
   xmlns:rdf="http://www.w3.org/1999/02/22-rdf-syntax-ns#"
   xmlns:svg="http://www.w3.org/2000/svg"
   xmlns="http://www.w3.org/2000/svg"
   xmlns:sodipodi="http://sodipodi.sourceforge.net/DTD/sodipodi-0.dtd"
   xmlns:inkscape="http://www.inkscape.org/namespaces/inkscape"
   xml:space="preserve"
   viewBox="0 0 829.99999 489.682"
   height="489.68201"
   width="830"
   y="0px"
   x="0px"
   id="Capa_1"
   version="1.1"
   inkscape:version="0.91 r"
   sodipodi:docname="building_resolved_humanDmg.svg"><sodipodi:namedview
     pagecolor="#ffffff"
     bordercolor="#666666"
     borderopacity="1"
     objecttolerance="10"
     gridtolerance="10"
     guidetolerance="10"
     inkscape:pageopacity="0"
     inkscape:pageshadow="2"
     inkscape:window-width="1543"
     inkscape:window-height="876"
     id="namedview3420"
     showgrid="false"
     inkscape:zoom="0.48194542"
     inkscape:cx="2.0749238"
     inkscape:cy="244.841"
     inkscape:window-x="57"
     inkscape:window-y="24"
     inkscape:window-maximized="1"
     inkscape:current-layer="g5" /><metadata
     id="metadata49"><rdf:RDF><cc:Work
         rdf:about=""><dc:format>image/svg+xml</dc:format><dc:type
           rdf:resource="http://purl.org/dc/dcmitype/StillImage" /><dc:title></dc:title></cc:Work></rdf:RDF></metadata><defs
     id="defs47" /><g
     id="g3"><g
       id="g5"><polygon
         id="polygon7"
         points="199.193,454.843 199.193,287.03 31.38,287.03 31.38,339.21 110.117,339.21 0,449.325 36.898,486.222 147.013,376.108 147.013,454.843 "
         style="fill:#000000" /><polygon
         id="polygon9"
         points="452.782,486.222 489.682,449.325 379.564,339.21 458.302,339.21 458.302,287.03 290.488,287.03 290.488,454.843 342.669,454.843 342.669,376.108 "
         style="fill:#000000" /><polygon
         id="polygon11"
         points="290.488,34.839 290.488,202.652 458.302,202.652 458.302,150.472 379.564,150.472 489.682,40.357 452.782,3.46 342.669,113.574 342.669,34.839 "
         style="fill:#000000" /><polygon
         id="polygon13"
         points="199.193,202.652 199.193,34.839 147.013,34.839 147.013,113.574 36.898,3.46 0,40.357 110.117,150.472 31.38,150.472 31.38,202.652 "
         style="fill:#000000" /><g
         id="g4262"
         transform="matrix(9.2055836,0,0,8.9333604,442.17014,6.671119)"
         style="fill:#000000"><g
           id="g4264"
           style="fill:#000000"><circle
             style="fill:#000000"
             cx="26.677"
             cy="4.3829999"
             r="4.3829999"
             id="circle4266" /><path
             style="fill:#000000"
             d="M 40.201,28.096 C 38.965,14.209 32.347,11.439 32.347,11.439 c 0,0 -6.396,-3.845 -13.129,1.052 -4.365,3.973 -5.373,10.038 -6.063,15.896 -0.349,2.977 4.307,2.941 4.653,0 0.412,-3.496 1,-7.008 2.735,-9.999 l -0.008,3.375 -0.032,16.219 0,12.867 c 0,1.383 1.014,2.506 2.438,2.506 1.423,0 2.578,-1.123 2.578,-2.506 l 0,-18.392 2.278,0 c 0,4.309 0,14.144 0,18.451 0,3 4.652,3 4.652,0 0,-4.309 0,-8.619 0,-12.927 L 32.646,21.73 c 0.002,-1.551 0.004,-2.937 0.004,-3.901 1.859,3.046 2.473,6.664 2.896,10.265 0.349,2.943 5.004,2.979 4.655,0.002 z"
             id="path4268"
             inkscape:connector-curvature="0" /></g></g></g></g><g
     id="g15" /><g
     id="g17" /><g
     id="g19" /><g
     id="g21" /><g
     id="g23" /><g
     id="g25" /><g
     id="g27" /><g
     id="g29" /><g
     id="g31" /><g
     id="g33" /><g
     id="g35" /><g
     id="g37" /><g
     id="g39" /><g
     id="g41" /><g
     id="g43" /></svg>