<?xml version="1.0" encoding="UTF-8" standalone="no"?>
<!-- Generator: Adobe Illustrator 16.0.0, SVG Export Plug-In . SVG Version: 6.00 Build 0)  -->

<svg
   xmlns:dc="http://purl.org/dc/elements/1.1/"
   xmlns:cc="http://creativecommons.org/ns#"
   xmlns:rdf="http://www.w3.org/1999/02/22-rdf-syntax-ns#"
   xmlns:svg="http://www.w3.org/2000/svg"
   xmlns="http://www.w3.org/2000/svg"
   xmlns:sodipodi="http://sodipodi.sourceforge.net/DTD/sodipodi-0.dtd"
   xmlns:inkscape="http://www.inkscape.org/namespaces/inkscape"
   version="1.1"
   id="Capa_1"
   x="0px"
   y="0px"
   width="830"
   height="533.33301"
   viewBox="0 0 829.99999 533.333"
   xml:space="preserve"
   inkscape:version="0.91 r"
   sodipodi:docname="fire_active_humanDmg.svg"><metadata
     id="metadata41"><rdf:RDF><cc:Work
         rdf:about=""><dc:format>image/svg+xml</dc:format><dc:type
           rdf:resource="http://purl.org/dc/dcmitype/StillImage" /><dc:title></dc:title></cc:Work></rdf:RDF></metadata><defs
     id="defs39" /><sodipodi:namedview
     pagecolor="#ffffff"
     bordercolor="#666666"
     borderopacity="1"
     objecttolerance="10"
     gridtolerance="10"
     guidetolerance="10"
     inkscape:pageopacity="0"
     inkscape:pageshadow="2"
     inkscape:window-width="1543"
     inkscape:window-height="876"
     id="namedview37"
     showgrid="false"
     inkscape:zoom="0.44250027"
     inkscape:cx="-136.78471"
     inkscape:cy="266.6665"
     inkscape:window-x="57"
     inkscape:window-y="24"
     inkscape:window-maximized="1"
     inkscape:current-layer="g3" /><g
     id="g3"><path
       d="m 165.494,533.333 c -35.545,-73.962 -16.616,-116.343 10.703,-156.272 29.917,-43.728 37.627,-87.013 37.627,-87.013 0,0 23.518,30.573 14.11,78.39 41.548,-46.25 49.389,-119.938 43.115,-148.159 93.914,65.63 134.051,207.737 79.96,313.054 287.695,-162.776 71.562,-406.339 33.934,-433.775 12.543,27.435 14.922,73.88 -10.416,96.42 C 331.635,33.333 225.583,0 225.583,0 238.126,83.877 180.117,175.596 124.179,244.13 122.214,210.684 120.126,187.605 102.538,155.599 98.59,216.357 52.157,265.884 39.583,326.76 22.551,409.2 52.341,469.562 165.494,533.333 Z"
       id="path5"
       style="fill:#ff0000"
       inkscape:connector-curvature="0" /><g
       id="g4262"
       transform="matrix(10.209449,0,0,9.9075403,407.85787,2.6292986)"
       style="fill:#ff0000"><g
         id="g4264"
         style="fill:#ff0000"><circle
           style="fill:#ff0000"
           cx="26.677"
           cy="4.3829999"
           r="4.3829999"
           id="circle4266" /><path
           style="fill:#ff0000"
           d="M 40.201,28.096 C 38.965,14.209 32.347,11.439 32.347,11.439 c 0,0 -6.396,-3.845 -13.129,1.052 -4.365,3.973 -5.373,10.038 -6.063,15.896 -0.349,2.977 4.307,2.941 4.653,0 0.412,-3.496 1,-7.008 2.735,-9.999 l -0.008,3.375 -0.032,16.219 0,12.867 c 0,1.383 1.014,2.506 2.438,2.506 1.423,0 2.578,-1.123 2.578,-2.506 l 0,-18.392 2.278,0 c 0,4.309 0,14.144 0,18.451 0,3 4.652,3 4.652,0 0,-4.309 0,-8.619 0,-12.927 L 32.646,21.73 c 0.002,-1.551 0.004,-2.937 0.004,-3.901 1.859,3.046 2.473,6.664 2.896,10.265 0.349,2.943 5.004,2.979 4.655,0.002 z"
           id="path4268"
           inkscape:connector-curvature="0" /></g></g></g><g
     id="g7" /><g
     id="g9" /><g
     id="g11" /><g
     id="g13" /><g
     id="g15" /><g
     id="g17" /><g
     id="g19" /><g
     id="g21" /><g
     id="g23" /><g
     id="g25" /><g
     id="g27" /><g
     id="g29" /><g
     id="g31" /><g
     id="g33" /><g
     id="g35" /></svg>