<?xml version="1.0" encoding="UTF-8" standalone="no"?>
<!-- Generator: Adobe Illustrator 13.0.2, SVG Export Plug-In . SVG Version: 6.00 Build 14948)  -->

<svg
   xmlns:dc="http://purl.org/dc/elements/1.1/"
   xmlns:cc="http://creativecommons.org/ns#"
   xmlns:rdf="http://www.w3.org/1999/02/22-rdf-syntax-ns#"
   xmlns:svg="http://www.w3.org/2000/svg"
   xmlns="http://www.w3.org/2000/svg"
   xmlns:sodipodi="http://sodipodi.sourceforge.net/DTD/sodipodi-0.dtd"
   xmlns:inkscape="http://www.inkscape.org/namespaces/inkscape"
   version="1.1"
   id="Layer_1"
   x="0px"
   y="0px"
   width="123.547px"
   height="123.539px"
   viewBox="-0.258 -0.548 123.547 123.539"
   style="enable-background:new -0.258 -0.548 123.547 123.539;"
   xml:space="preserve"
   inkscape:version="0.91 r"
   sodipodi:docname="hospital.svg"><metadata
     id="metadata17"><rdf:RDF><cc:Work
         rdf:about=""><dc:format>image/svg+xml</dc:format><dc:type
           rdf:resource="http://purl.org/dc/dcmitype/StillImage" /></cc:Work></rdf:RDF></metadata><defs
     id="defs15" /><sodipodi:namedview
     pagecolor="#ffffff"
     bordercolor="#666666"
     borderopacity="1"
     objecttolerance="10"
     gridtolerance="10"
     guidetolerance="10"
     inkscape:pageopacity="0"
     inkscape:pageshadow="2"
     inkscape:window-width="1543"
     inkscape:window-height="876"
     id="namedview13"
     showgrid="false"
     inkscape:zoom="1.9103279"
     inkscape:cx="0.52746815"
     inkscape:cy="61.769501"
     inkscape:window-x="57"
     inkscape:window-y="24"
     inkscape:window-maximized="1"
     inkscape:current-layer="Layer_1" /><path
     inkscape:connector-curvature="0"
     id="path5"
     d="m 15.914,1.949 c -6.758,0 -12.258,5.492 -12.258,12.25 l 0,94.023 c 0,6.781 5.5,12.273 12.258,12.273 l 94.023,0 c 6.75,0 12.25,-5.492 12.25,-12.273 l 0,-94.023 c 0,-6.758 -5.5,-12.25 -12.25,-12.25 l -94.023,0 z"
     style="fill:#ffffff" /><path
     inkscape:connector-curvature="0"
     id="path7"
     d="m 110.18,123.02 c 8.164,0 14.797,-6.617 14.797,-14.797 l 0,-94.235 c 0,-8.156 -6.633,-14.797 -14.797,-14.797 l -94.227,0 c -8.18,0 -14.797,6.641 -14.797,14.797 l 0,94.234 c 0,8.18 6.617,14.797 14.797,14.797 l 94.227,0 z"
     style="fill:#0088cf" /><polygon
     id="polygon11"
     points="46.594,48.801 46.594,22.559 29.992,22.559 29.992,99.684 46.594,99.684 46.594,65.379 79.758,65.379 79.758,99.684 96.375,99.684 96.375,22.559 79.758,22.559 79.758,48.801 "
     style="fill:#ffffff" /></svg>