<?xml version="1.0" encoding="UTF-8" standalone="no"?>
<!-- Generator: Adobe Illustrator 16.0.0, SVG Export Plug-In . SVG Version: 6.00 Build 0)  -->

<svg
   xmlns:dc="http://purl.org/dc/elements/1.1/"
   xmlns:cc="http://creativecommons.org/ns#"
   xmlns:rdf="http://www.w3.org/1999/02/22-rdf-syntax-ns#"
   xmlns:svg="http://www.w3.org/2000/svg"
   xmlns="http://www.w3.org/2000/svg"
   xmlns:sodipodi="http://sodipodi.sourceforge.net/DTD/sodipodi-0.dtd"
   xmlns:inkscape="http://www.inkscape.org/namespaces/inkscape"
   version="1.1"
   id="Capa_1"
   x="0px"
   y="0px"
   width="48"
   height="31.983999"
   viewBox="0 0 48.000001 31.984"
   xml:space="preserve"
   inkscape:version="0.91 r"
   sodipodi:docname="tree_active_humanDmg.svg"><metadata
     id="metadata41"><rdf:RDF><cc:Work
         rdf:about=""><dc:format>image/svg+xml</dc:format><dc:type
           rdf:resource="http://purl.org/dc/dcmitype/StillImage" /><dc:title></dc:title></cc:Work></rdf:RDF></metadata><defs
     id="defs39" /><sodipodi:namedview
     pagecolor="#ffffff"
     bordercolor="#666666"
     borderopacity="1"
     objecttolerance="10"
     gridtolerance="10"
     guidetolerance="10"
     inkscape:pageopacity="0"
     inkscape:pageshadow="2"
     inkscape:window-width="1543"
     inkscape:window-height="876"
     id="namedview37"
     showgrid="false"
     inkscape:zoom="10.435043"
     inkscape:cx="49.846299"
     inkscape:cy="10.791906"
     inkscape:window-x="57"
     inkscape:window-y="24"
     inkscape:window-maximized="1"
     inkscape:current-layer="g3"
     showguides="false"
     inkscape:guide-bbox="true"><sodipodi:guide
       position="36.51159,-0.095830946"
       orientation="0,1"
       id="guide6310" /><sodipodi:guide
       position="32.007536,32.007536"
       orientation="0,1"
       id="guide6312" /></sodipodi:namedview><g
     id="g3"><path
       d="m 17.392,18.85 c 0.283,-0.321 0.555,-1.109 0.789,-1.991 0.59,0.688 1.453,1.132 2.43,1.132 1.127,0 2.115,-0.583 2.689,-1.461 0.172,0.027 0.346,0.053 0.525,0.053 1.775,0 3.215,-1.439 3.215,-3.214 0,-1.31 -0.785,-2.433 -1.91,-2.934 0.084,-0.395 0.135,-0.801 0.135,-1.22 0,-3.072 -2.403,-5.56 -5.428,-5.745 C 18.943,1.428 16.912,0 14.544,0 11.759,0 9.436,1.971 8.888,4.593 8.642,4.553 8.394,4.517 8.137,4.517 c -2.233,0 -4.094,1.563 -4.57,3.651 -1.548,0.768 -2.623,2.349 -2.623,4.194 0,2.593 2.103,4.696 4.696,4.696 1.509,0 2.837,-0.726 3.697,-1.832 0.363,1.09 0.85,2.283 1.324,2.591 0.922,0.597 1.249,0.597 1.466,1.194 0.217,0.598 -0.783,6.371 -1.272,7.021 -0.489,0.65 -1.89,1.236 -2.691,1.555 -0.802,0.319 -3.919,1.787 -4.234,2.389 1.073,-0.461 3.174,-0.857 4.853,-1.121 0.516,-0.082 -1.879,1.555 -1.487,1.5 0.662,-0.09 3.962,-1.846 3.963,-1.846 0,0 -0.026,0.875 -0.651,1.467 -1.031,0.977 -2.552,2.008 -2.552,2.008 0,0 5.348,-1.684 6.162,-3.42 2.037,2.66 5.564,3.148 5.564,3.148 0,0 -2.111,-1.326 -2.495,-2.023 -0.384,-0.697 0.021,-1.073 0.021,-1.073 0,0 3.887,1.469 7.252,1.306 -1.356,-0.597 -2.932,-1.086 -4.342,-2.009 -1.412,-0.923 -2.158,-1.135 -3.148,-1.532 -0.99,-0.396 -0.949,-3.936 -1.076,-4.699 -0.285,-1.691 0.601,-1.92 1.398,-2.832 z m -6.437,-2.387 c -0.226,-0.17 -0.613,-0.701 -0.999,-1.283 0.696,0.407 1.496,0.657 2.361,0.657 0.113,0 0.218,-0.024 0.329,-0.032 0.023,0.547 0.024,0.982 0.024,0.982 0,0 -1.141,0.109 -1.715,-0.324 z m 4.374,1.247 c 0,0 0.488,-1.466 0.271,-2.226 -0.053,-0.186 -0.104,-0.502 -0.148,-0.87 0.243,-0.22 0.465,-0.459 0.657,-0.725 0.399,0.29 0.836,0.526 1.305,0.707 -0.004,0.061 -0.019,0.119 -0.019,0.18 0,0.333 0.064,0.647 0.158,0.948 -0.482,0.859 -0.943,1.678 -1.086,1.931 -0.333,0.599 -1.138,0.055 -1.138,0.055 z"
       id="path5"
       style="fill:#ff0000"
       inkscape:connector-curvature="0" /><g
       id="g4262"
       transform="matrix(0.6152163,0,0,0.59702341,22.340508,0.20884807)"
       style="fill:#ff0000"><g
         id="g4264"
         style="fill:#ff0000"><circle
           style="fill:#ff0000"
           cx="26.677"
           cy="4.3829999"
           r="4.3829999"
           id="circle4266" /><path
           style="fill:#ff0000"
           d="M 40.201,28.096 C 38.965,14.209 32.347,11.439 32.347,11.439 c 0,0 -6.396,-3.845 -13.129,1.052 -4.365,3.973 -5.373,10.038 -6.063,15.896 -0.349,2.977 4.307,2.941 4.653,0 0.412,-3.496 1,-7.008 2.735,-9.999 l -0.008,3.375 -0.032,16.219 0,12.867 c 0,1.383 1.014,2.506 2.438,2.506 1.423,0 2.578,-1.123 2.578,-2.506 l 0,-18.392 2.278,0 c 0,4.309 0,14.144 0,18.451 0,3 4.652,3 4.652,0 0,-4.309 0,-8.619 0,-12.927 L 32.646,21.73 c 0.002,-1.551 0.004,-2.937 0.004,-3.901 1.859,3.046 2.473,6.664 2.896,10.265 0.349,2.943 5.004,2.979 4.655,0.002 z"
           id="path4268"
           inkscape:connector-curvature="0" /></g></g></g><g
     id="g7" /><g
     id="g9" /><g
     id="g11" /><g
     id="g13" /><g
     id="g15" /><g
     id="g17" /><g
     id="g19" /><g
     id="g21" /><g
     id="g23" /><g
     id="g25" /><g
     id="g27" /><g
     id="g29" /><g
     id="g31" /><g
     id="g33" /><g
     id="g35" /></svg>